<svg width="159" height="159" viewBox="0 0 159 159" fill="none" xmlns="http://www.w3.org/2000/svg">
<path d="M115.938 158.25C92.6077 158.25 73.625 139.267 73.625 115.938C73.625 92.6077 92.6077 73.625 115.938 73.625C139.267 73.625 158.25 92.6077 158.25 115.938C158.25 139.267 139.267 158.25 115.938 158.25ZM115.938 82.0625C97.2582 82.0625 82.0625 97.2582 82.0625 115.938C82.0625 134.617 97.2582 149.813 115.938 149.813C134.617 149.813 149.813 134.617 149.813 115.938C149.813 97.2582 134.617 82.0625 115.938 82.0625Z" fill="#737373" stroke="white" stroke-width="1.5"/>
<path d="M115.938 138.375C113.609 138.375 111.719 136.485 111.719 134.156V97.7188C111.719 95.3902 113.609 93.5 115.938 93.5C118.266 93.5 120.156 95.3902 120.156 97.7188V134.156C120.156 136.485 118.266 138.375 115.938 138.375Z" fill="#737373" stroke="white" stroke-width="1.5"/>
<path d="M134.156 120.156H97.7188C95.3902 120.156 93.5 118.266 93.5 115.938C93.5 113.609 95.3902 111.719 97.7188 111.719H134.156C136.485 111.719 138.375 113.609 138.375 115.938C138.375 118.266 136.485 120.156 134.156 120.156Z" fill="#737373" stroke="white" stroke-width="1.5"/>
<path d="M60.8838 138.375H18.2188C8.58284 138.375 0.75 130.542 0.75 120.906V18.2188C0.75 8.58284 8.58284 0.75 18.2188 0.75H94.4063C104.042 0.75 111.875 8.58284 111.875 18.2188V58.565C111.875 60.8935 109.985 62.7838 107.656 62.7838C105.328 62.7838 103.438 60.8935 103.438 58.565V18.2188C103.438 13.2399 99.3851 9.1875 94.4063 9.1875H18.2188C13.2399 9.1875 9.1875 13.2399 9.1875 18.2188V120.906C9.1875 125.885 13.2399 129.938 18.2188 129.938H60.8838C63.2123 129.938 65.1025 131.828 65.1025 134.156C65.1025 136.485 63.2123 138.375 60.8838 138.375Z" fill="#737373" stroke="white" stroke-width="1.5"/>
<path d="M87.7812 62.1875H24.8438C22.5152 62.1875 20.625 60.2973 20.625 57.9688C20.625 55.6402 22.5152 53.75 24.8438 53.75H87.7812C90.1098 53.75 92 55.6402 92 57.9688C92 60.2973 90.1098 62.1875 87.7812 62.1875Z" fill="#737373" stroke="white" stroke-width="1.5"/>
<path d="M61.2812 88.6875H24.8438C22.5152 88.6875 20.625 86.7973 20.625 84.4688C20.625 82.1402 22.5152 80.25 24.8438 80.25H61.2812C63.6098 80.25 65.5 82.1402 65.5 84.4688C65.5 86.7973 63.6098 88.6875 61.2812 88.6875Z" fill="#737373" stroke="white" stroke-width="1.5"/>
<path d="M54.6562 35.6875H24.8438C22.5152 35.6875 20.625 33.7973 20.625 31.4688C20.625 29.1402 22.5152 27.25 24.8438 27.25H54.6562C56.9848 27.25 58.875 29.1402 58.875 31.4688C58.875 33.7973 56.9848 35.6875 54.6562 35.6875Z" fill="#737373" stroke="white" stroke-width="1.5"/>
</svg>
