<svg width="108" height="171" viewBox="0 0 108 171" fill="none" xmlns="http://www.w3.org/2000/svg">
<path d="M100.009 23.9385H90.7034V2.07559C90.7034 0.934017 89.7694 0 88.6278 0C88.4202 0 88.2127 0.0345931 88.0397 0.0691863L7.57591 23.9385C3.32095 24.1807 0 27.6746 0 31.9295V162.208C0 166.635 3.59769 170.199 7.99103 170.199H100.009C104.437 170.199 108 166.601 108 162.208V31.9295C108 27.5016 104.402 23.9385 100.009 23.9385ZM86.5522 4.84305V23.9039H22.2088L86.5522 4.84305ZM103.849 162.208C103.849 164.318 102.119 166.047 100.009 166.047H7.99103C5.88084 166.047 4.15119 164.318 4.15119 162.208V31.9295C4.15119 30.5458 4.87764 29.3004 6.05381 28.6086L6.0884 28.7124L8.19859 28.0897H100.009C102.119 28.0897 103.849 29.8193 103.849 31.9295V162.208Z" fill="#737373"/>
<path d="M83.9233 127.199H24.0771C22.9355 127.199 22.0015 128.133 22.0015 129.275C22.0015 130.416 22.9355 131.35 24.0771 131.35H83.9233C85.0649 131.35 85.9989 130.416 85.9989 129.275C85.9989 128.133 85.0649 127.199 83.9233 127.199Z" fill="#737373"/>
<path d="M67.6645 141.14H40.3358C39.1943 141.14 38.2603 142.074 38.2603 143.216C38.2603 144.357 39.1943 145.291 40.3358 145.291H67.6645C68.8061 145.291 69.7401 144.357 69.7401 143.216C69.7401 142.074 68.8061 141.14 67.6645 141.14Z" fill="#737373"/>
<path d="M53.9999 49.6758C36.7725 49.6758 22.7622 63.6514 22.7622 80.9134C22.7622 98.1755 36.7379 112.151 53.9999 112.151C71.2619 112.151 85.2375 98.1755 85.2375 80.9134C85.2029 63.6514 71.2273 49.6758 53.9999 49.6758ZM44.5213 55.5566C41.9614 58.2203 39.9204 61.2991 38.4675 64.6892C37.1876 63.7898 36.0114 62.8212 34.9044 61.7142C37.6373 58.9813 40.9236 56.9058 44.5213 55.5566ZM32.2062 64.8622C33.6937 66.2805 35.2849 67.5951 37.0146 68.702C36.046 71.9884 35.4925 75.4131 35.3541 78.8379H27.0172C27.3977 73.7527 29.1965 68.9442 32.2062 64.8622ZM27.0172 82.9544H35.3541C35.4925 86.3792 36.046 89.8039 37.0146 93.0903C35.2849 94.1972 33.6937 95.4772 32.2062 96.9301C29.1965 92.8481 27.3977 88.0051 27.0172 82.9544ZM34.939 100.078C36.046 98.9711 37.2222 98.0025 38.5021 97.1031C39.955 100.493 41.996 103.572 44.5559 106.236C40.9236 104.887 37.6373 102.776 34.939 100.078ZM51.9243 106.928C47.5655 104.229 44.21 100.078 42.0998 94.9583C45.1786 93.4362 48.5341 92.5368 51.9243 92.2946V106.928ZM51.9243 88.1434C48.0498 88.3856 44.2446 89.3888 40.7507 91.0147C40.0588 88.3856 39.6437 85.6873 39.5053 82.9544H51.9243V88.1434ZM51.9243 78.8033H39.5053C39.6437 76.0704 40.0588 73.3721 40.7507 70.743C44.2792 72.4035 48.0498 73.3721 51.9243 73.6143V78.8033ZM51.9243 69.4631C48.4996 69.2209 45.1786 68.2869 42.0998 66.7994C44.2446 61.6796 47.6001 57.563 51.9243 54.8648V69.4631ZM73.0953 61.7142C71.9883 62.8212 70.8122 63.8244 69.5322 64.6892C68.0793 61.2991 66.0383 58.1857 63.4784 55.522C67.0761 56.9058 70.3625 59.0159 73.0953 61.7142ZM56.0755 54.8648C60.4342 57.5976 63.7898 61.7142 65.9345 66.834C62.8557 68.3561 59.5002 69.2555 56.0755 69.4977V54.8648ZM56.0755 73.6489C59.9499 73.4067 63.7552 72.4381 67.2837 70.7776C67.9755 73.4067 68.3906 76.105 68.529 78.8033H56.0755V73.6489ZM56.0755 82.9544H68.4944C68.3561 85.6527 67.9755 88.351 67.2491 90.9801C63.7206 89.3196 59.9153 88.351 56.0409 88.1088V82.9544H56.0755ZM56.0755 106.928V92.2946C59.5002 92.5368 62.8557 93.4362 65.9345 94.9583C63.7898 100.078 60.4342 104.229 56.0755 106.928ZM63.4784 106.236C66.0383 103.572 68.0793 100.459 69.5322 97.0685C70.8122 97.9679 71.9883 98.9711 73.0953 100.043C70.3625 102.776 67.0761 104.887 63.4784 106.236ZM75.7936 96.9301C74.3407 95.4772 72.7148 94.1972 70.9851 93.0903C71.9538 89.8039 72.5072 86.4138 72.6456 82.989H80.9826C80.6021 88.0051 78.8032 92.8481 75.7936 96.9301ZM72.6456 78.8033C72.5072 75.3785 71.9538 71.9884 70.9851 68.702C72.7148 67.5951 74.3061 66.2805 75.7936 64.8622C78.8032 68.9442 80.6021 73.7527 80.9826 78.8033H72.6456Z" fill="#737373"/>
</svg>
